<svg viewBox="0 0 368 124" xmlns="http://www.w3.org/2000/svg" fill-rule="evenodd" clip-rule="evenodd" stroke-linejoin="round" stroke-miterlimit="1.414"><path d="M26.499.008C33.986.004 41.473.02 48.963 0c.016 2.443.024 4.886-.008 7.33-7.482-.013-14.97-.005-22.456-.005 0-2.439.004-4.878 0-7.317zM53.093.004c7.49.012 14.981 0 22.476.008-.008 2.435 0 4.874-.008 7.313-7.487-.004-14.974-.004-22.46 0-.032-2.439-.02-4.882-.008-7.321zM.04 8.7h22.495c.016 2.376 0 4.752.012 7.128-7.506-.015-15.013.008-22.52-.011.02-2.372.005-4.745.013-7.117zm26.46 0c7.486-.004 14.969.012 22.455-.008.071.82.087 1.644.02 2.463.032 1.56.217 3.121-.024 4.677-7.486-.031-14.973.024-22.46-.027.016-2.368.008-4.736.008-7.105h.001zm26.597-.004c7.49.012 14.977 0 22.468.008 0 2.368-.008 4.737.012 7.105-7.499.035-14.998.004-22.496.02.008-2.38-.012-4.757.016-7.133zm26.444 7.132c.011-2.38 0-4.756.007-7.132 7.495.008 14.99.008 22.48 0 .012 2.373-.004 4.749.012 7.12-7.502.02-15.001 0-22.5.012h.001zm-26.464 1.478c7.499.008 14.997-.008 22.492.004-.004 2.396-.012 4.788.008 7.183-4.118.178-8.228-.047-12.35.02h-1.97c-2.73.02-5.453.173-8.18-.016.008-2.395.008-4.795 0-7.19v-.001zm52.947 0c7.506 0 15.013.004 22.519 0-.011 2.405-.013 4.81-.004 7.215-6.663-.016-13.33 0-19.997-.008-.844.004-1.683.004-2.522-.008.016-2.4.012-4.8.004-7.199zM.028 24.513c.02-2.404.008-4.803.004-7.203 7.506-.008 15.013 0 22.515-.004-.004 2.396-.012 4.792.004 7.187-3.641.308-7.286-.189-10.927.134-3.865-.209-7.727.044-11.596-.114zm26.467-7.203c7.495-.012 14.985.012 22.476-.012.244 2.384-.24 4.788.173 7.168-6.21.134-12.424-.024-18.634.083-1.312-.016-2.785.433-3.995-.205-.051-2.345.008-4.69-.02-7.034zm53.046-.004c7.498.004 14.997 0 22.495 0-.016 2.455.016 4.906-.02 7.36-3.463-.33-6.943.016-10.41-.05-2.23-.265-4.465.157-6.695-.067-1.789-.087-3.582-.012-5.37-.028.007-2.408.007-4.811 0-7.215zM.031 33.233c.009-2.404.009-4.811 0-7.219 7.507-.004 15.01.004 22.516 0-.016 2.435.012 4.875-.02 7.314-7.498-.067-15.005.114-22.495-.095H.031zm26.464-7.215c7.542 0 15.084-.015 22.626.008-.28 2.423-.087 4.87-.162 7.302-7.486-.008-14.97-.004-22.456 0-.008-2.44 0-4.875-.008-7.31zm26.582-.004c7.499 0 14.997-.004 22.496.004-.008 2.392-.02 4.784.007 7.176-1.607.2-3.227.122-4.842.13-5.88.004-11.758-.008-17.637.004-.04-2.435-.004-4.875-.024-7.314zm26.464 0c7.498.004 14.997 0 22.495 0-.012 2.435.004 4.875-.012 7.31-7.49 0-14.977-.004-22.468.004-.02-2.44 0-4.879-.015-7.314zm26.483 0h22.519c-.024 2.435.008 4.875-.02 7.314-7.498-.008-14.993-.004-22.491-.004-.008-2.435.004-4.875-.008-7.31zm26.463.004c7.542.004 15.088-.02 22.63.012-.012.835-.02 1.67-.051 2.51a8.444 8.444 0 0 0 .023 1.92c.04.96-.047 1.922-.161 2.876-5.871-.028-11.743-.004-17.618-.012-1.611-.02-3.239.106-4.835-.166.032-2.38.016-4.76.012-7.14zm212.185 0c7.499-.008 15.001 0 22.5-.004-.009 2.405-.007 4.81.004 7.215-7.49.22-14.99.028-22.484.099-.031-2.435 0-4.875-.02-7.31zM.036 34.242c7.502-.012 15.005.008 22.507-.008 0 2.404-.004 4.811.004 7.219-7.506-.02-15.017.015-22.523-.016.027-2.4.012-4.795.012-7.195zm75.529-.004c.004 2.4-.008 4.8.012 7.199-5.166.02-10.336.016-15.502.004-2.329.024-4.657-.012-6.986.02-.012-2.412-.008-4.816-.004-7.223 7.494.004 14.989.004 22.48 0zm3.98-.004c7.498.016 14.993.004 22.487.004.004 2.4-.012 4.8.012 7.199-.855.016-1.714.016-2.565.004-2.215.02-4.43-.004-6.644.008-2.384-.004-4.764.008-7.148-.008-2.048.02-4.097-.004-6.146.012.011-2.408.007-4.815.003-7.219h.001zm26.483.008c7.502-.008 15.005.004 22.507-.008.004 2.408-.012 4.811.008 7.219-7.203.055-14.414-.134-21.609.098-.229-.047-.69-.138-.922-.185.035-2.376.012-4.752.016-7.124zm53.045-.004c7.499.008 14.997-.004 22.492.008-.008 2.384-.02 4.768.008 7.155-.442.028-.88.06-1.313.091-1.84-.083-3.68-.027-5.52-.051-4.465.02-8.929 0-13.393.008-.765-.004-1.53-.008-2.29-.016.032-2.4.004-4.795.016-7.195zm185.607-.004c7.499.012 14.993.004 22.492.004-.004 2.4-.012 4.803.004 7.207-7.503.008-15.001-.004-22.5.008.008-2.408-.004-4.815.004-7.219zm-318.18.008c7.478-.012 14.96.012 22.44-.012.142 1.248.193 2.505.153 3.76-.165 1.102-.031 2.21.06 3.313-.213.06-.647.181-.864.24-7.258-.22-14.532-.027-21.794-.098.008-2.404.004-4.803.004-7.203h.001zm105.991 0c7.495-.008 14.985.004 22.48-.008.004 2.408-.004 4.811.008 7.219-5.757-.012-11.514 0-17.27-.008-1.746.008-3.488.012-5.226-.016.016-2.396.008-4.791.008-7.187zm185.608-.004c7.537.012 15.071-.012 22.61.016-.005 2.388-.009 4.783.003 7.175-1.997.028-3.995.028-5.993.012-4.319.02-8.633.004-12.948.008-1.23 0-2.451 0-3.676.004.007-2.408.004-4.811.004-7.215zM.039 42.95c7.5-.004 14.998.008 22.496-.008.012 2.372.004 4.744.016 7.116-7.51-.007-15.017.012-22.523-.007.02-2.369.004-4.737.012-7.1l-.001-.001zm26.46 0c7.483-.008 14.962.02 22.44-.012.375 2.36-.137 4.737.056 7.113-7.503.011-15.001.007-22.504 0 .016-2.369.004-4.733.008-7.1v-.001zm26.594-.004c7.49.012 14.981 0 22.472.008.004 2.364-.008 4.728.008 7.093-7.499.023-14.997.004-22.496.011.012-2.372-.004-4.74.016-7.112zm26.455-.004c7.495.016 14.986.008 22.48.004.012 2.368-.008 4.74.016 7.109-7.502.003-15.005 0-22.507.003.02-2.372.004-4.744.011-7.116zm26.484.008c7.498-.004 15 .008 22.5-.004.007 2.372-.009 4.74.015 7.112-7.51-.007-15.017.004-22.527-.003.02-2.369.004-4.737.012-7.105zm26.46 0c7.47-.012 14.941.024 22.412-.016.087.603.173 1.202.264 1.809l-.22.252c-.11 1.655.437 3.44-.008 5.016-7.483.103-14.97.028-22.457.036.016-2.368.004-4.733.008-7.097h.001zm26.573 7.108c.016-2.372-.008-4.744.016-7.112 7.494.012 14.985 0 22.48.004 0 2.364-.012 4.729.008 7.097-7.503.023-15.001.004-22.504.011zm26.487-7.116c7.522.012 15.045.012 22.567 0 .012 2.372.004 4.744.012 7.116-7.53-.003-15.06 0-22.59 0 .015-2.372.003-4.744.011-7.116zm106.087.012c7.495-.012 14.99.004 22.484-.008.004 2.368-.004 4.74.008 7.112-7.503-.011-15.001.008-22.504-.007.02-2.369.008-4.733.012-7.097zm26.463-.004c7.534.008 15.068-.012 22.602.008.004 2.36-.007 4.717.012 7.077-7.542.051-15.08.004-22.621.023.007-2.368 0-4.74.007-7.108zm26.57 7.112c.012-2.376-.004-4.748.012-7.12 7.495.016 14.99.008 22.484.004.004 2.368-.012 4.736.008 7.1-7.503.024-15.001 0-22.504.016zM.032 51.56c7.502-.012 15.005.008 22.511-.008 0 2.407 0 4.815.004 7.223-7.506-.004-15.009.007-22.515-.004.008-2.404.012-4.808 0-7.211zm26.463.004c7.495-.016 14.985 0 22.48-.008-.012 1.514-.004 3.029.024 4.543l-.036 2.68c-7.49-.016-14.977.011-22.468-.012.004-2.404.008-4.804 0-7.203zm26.586-.008c7.495.008 14.993-.008 22.488.008-.008 2.4-.004 4.8 0 7.203-7.495.023-14.99 0-22.484.012-.004-2.408 0-4.816-.004-7.223zm26.463-.004c7.499.012 14.998 0 22.496.008-.012 2.4-.012 4.803 0 7.21-7.502.009-15.001.009-22.5 0 .012-2.407.008-4.81.004-7.218zm26.48.008c7.506-.008 15.013.004 22.515-.004-.008 2.403-.012 4.807.004 7.215-7.502.011-15.009 0-22.511.004-.004-2.404 0-4.812-.008-7.215zm26.463.008c7.495-.028 14.99.004 22.484-.016.181 2.392.067 4.803.06 7.203-7.515.031-15.03.035-22.544 0 .008-2.396.008-4.792 0-7.187zm26.586-.012c7.499.008 14.997-.008 22.496.008-.016 2.4-.016 4.8-.004 7.195-7.499.031-14.997.012-22.496.012.004-2.404 0-4.812.004-7.215zm26.475-.004c7.526.008 15.053.008 22.579 0 0 2.407 0 4.815-.004 7.223h-22.575c0-2.408.004-4.816 0-7.223zm26.472.008c7.561.004 15.13-.024 22.696.016a611.504 611.504 0 0 0 0 7.167c-7.561.075-15.127.008-22.692.036-.008-2.408 0-4.812-.004-7.22v.001zm53.045-.004c7.526.004 15.052-.004 22.582.004a722.006 722.006 0 0 0 0 7.21c-7.53.009-15.056 0-22.586.005.004-2.408 0-4.816.004-7.22v.001zm26.566.008c7.499-.02 14.993.008 22.492-.012 0 2.404-.004 4.811.008 7.219-7.503 0-15.001.02-22.5-.012.008-2.4.012-4.796 0-7.195zm26.468-.008c7.537.016 15.075-.024 22.613.023-.012 2.388-.008 4.78 0 7.172-7.538.055-15.076.008-22.613.024v-7.22.001zm26.577 0c7.499.004 14.997 0 22.496.004-.004 2.396-.012 4.795.004 7.19-7.499.06-14.997 0-22.492.029-.008-2.408-.004-4.816-.008-7.223zm-106.193.012c7.562-.024 15.127-.008 22.689-.008-.012 2.403-.004 4.803-.008 7.207-7.561-.004-15.123.047-22.685-.024.016-2.392.008-4.784.004-7.175zM94.447 66.399c4.263-2.411 9.319-2.596 14.095-2.541 4.732.193 9.878 1.04 13.42 4.46 2.448 2.325 3.535 5.623 4.067 8.87-4.413.461-8.862.571-13.295.835-.402-1.639-.98-3.365-2.388-4.425-1.78-1.466-4.236-1.406-6.403-1.182-1.631.24-3.274 1.631-3.191 3.389-.107 1.442 1.284 2.411 2.49 2.845 2.817.97 5.796 1.34 8.66 2.16 4.174 1.15 8.56 2.415 11.81 5.433 2.479 2.179 3.448 5.572 3.657 8.763 4.417-.126 8.814-.626 13.235-.673.292 3.014 1.975 6.032 4.938 7.092 2.955 1.056 7.116.804 8.842-2.202 1.26-1.943.142-4.619-1.765-5.667-2.432-1.32-5.206-1.773-7.861-2.423-4.138-1.06-8.374-2.396-11.747-5.119-3.203-2.592-4.704-7.021-3.877-11.04.627-3.634 3.172-6.754 6.352-8.516 4.24-2.415 9.28-2.636 14.043-2.604 4.658.17 9.71.953 13.283 4.204 2.617 2.337 3.854 5.773 4.319 9.165-4.401.367-8.822.588-13.236.769-.28-1.884-1.158-3.83-2.872-4.811-1.632-1.005-3.63-.934-5.465-.812-1.797.114-3.523 1.584-3.63 3.432.052 1.564 1.53 2.565 2.9 2.963 2.853.926 5.852 1.285 8.717 2.167 4.137 1.182 8.507 2.49 11.612 5.639 2.274 2.21 3.42 5.402 3.456 8.543.138 5.13-2.786 10.142-7.18 12.735-3.79 2.29-8.314 3.003-12.68 2.928-4.902.055-10.075-.331-14.41-2.845-3.861-2.463-6.166-6.833-6.923-11.266-.607 2.66-1.277 5.446-3.05 7.601-2.746 3.594-7.156 5.513-11.533 6.167-3.511.504-7.09.394-10.62.173-3.885-.445-7.975-1.422-10.934-4.133-3.07-2.999-4.91-7.187-5.174-11.459 4.39-.22 8.787-.433 13.161-.85.43 2.036.898 4.255 2.545 5.689 2.94 2.81 8.512 3.042 11.171-.252 1.647-1.903.58-4.867-1.481-5.958-3.09-1.714-6.683-2.041-10.02-3.038-3.689-1.139-7.503-2.526-10.324-5.268-2.254-2.132-3.464-5.257-3.342-8.346-.075-4.433 2.782-8.55 6.628-10.592zm-38.182-1.844c5.099.012 10.197 0 15.292.008 5.738 15.186 11.459 30.38 17.157 45.582-2.85.004-5.702-.004-8.555 0a96.828 96.828 0 0 0-3.534.02 32.088 32.088 0 0 1-2.755-.181c-.638-2.534-1.434-5.028-2.234-7.515-5.315.008-10.635-.008-15.95.008-.722 2.51-1.498 5-2.195 7.518-4.748.335-9.52.064-14.276.15 5.516-15.257 11.277-30.427 17.05-45.59zm7.325 12.117c.114.04.335.114.45.153 1.485 5.312 3.266 10.537 4.779 15.84-3.294.005-6.592.194-9.879.044.036-.686.201-1.351.402-2.002 1.45-4.665 2.916-9.334 4.248-14.035zm214.128-12.113c4.87-.02 9.74.012 14.614-.016 2.633 8.039 5.095 16.128 7.649 24.19.961 2.814 1.588 5.761 2.805 8.476 3.393-10.883 6.675-21.798 10.13-32.662 4.733.016 9.466-.004 14.202.012-2.16 5.741-4.342 11.47-6.462 17.223-1.738 5.253-3.751 10.415-5.662 15.608-1.71 4.236-3.086 8.602-4.902 12.79-4.528-.066-9.06-.027-13.587-.019-.54-.095-1.332.19-1.663-.366-1.706-3.874-2.79-7.984-4.448-11.877-4.248-11.112-8.362-22.275-12.676-33.359zm51.583-.012c12.61.02 25.222-.012 37.832.02-.012 3.188-.008 6.375-.004 9.567-7.877.04-15.758-.016-23.635.028-.027 2.447-.043 4.894.012 7.34 7.274-.027 14.548.005 21.822-.015-.008 3.072-.008 6.144 0 9.216-7.266-.02-14.528.016-21.794-.015-.126 3.014-.032 6.032-.06 9.05 8.078 0 16.156.005 24.234 0-.012 3.476.067 6.955-.047 10.43-12.78-.054-25.562.005-38.344-.027-.028-15.198 0-30.396-.016-45.594zm-329.3.016c8.987.008 17.971-.028 26.96.016 3.86.012 7.982 1.202 10.52 4.275 3.448 3.795 3.432 10.115.067 13.953-1.233 1.505-3.097 2.214-4.728 3.184 3.01.76 6.115 2.214 7.742 5 3.145 5.233 1.632 12.716-3.384 16.246-2.577 1.95-5.919 2.152-9 2.565-6.553.65-13.15.217-19.722.343H2.944c-.978-.004-1.95-.004-2.924.008-.036-15.198 0-30.396-.02-45.59h.001zm14.224 9.11c3.125.13 6.34-.382 9.398.461 3.05.89 3.507 5.418 1.17 7.302-1.072.772-2.423.973-3.716.977-2.285.016-4.57.004-6.86-.008 0-2.912-.008-5.82.008-8.732zm.004 17.4c3.35.084 6.726-.251 10.048.304 1.62.252 3.148 1.348 3.621 2.967.331 1.549.193 3.417-1.091 4.516-1.565 1.363-3.771 1.521-5.753 1.537-2.274.004-4.552 0-6.83-.008-.01-3.105-.023-6.21.005-9.315v-.001zm157.055-26.518c6.79 0 13.583-.008 20.372.004 4.638-.063 9.544.544 13.42 3.302 3.768 2.518 6.026 6.722 7.086 11.033 1.091 4.512 1.194 9.22.67 13.819-.481 5.402-3.157 10.77-7.633 13.941-3.66 2.62-8.33 3.172-12.7 3.472-7.057.063-14.11-.012-21.168.035-.102-15.202-.007-30.404-.047-45.606zm13.95 10.249c3.96-.024 8.814-.453 11.631 2.932 2.376 3.282 2.183 7.593 2.175 11.45-.083 3.342-.504 7.35-3.51 9.402-3.185 1.568-6.853 1.04-10.281 1.159-.04-8.315-.012-16.629-.016-24.943h.001zM216 64.559c6.726-.012 13.452-.004 20.174-.008 4.22.028 8.515-.138 12.637.93 1.82.461 3.527 1.38 4.886 2.687 5.21 5.08 4.614 14.8-1.273 19.127-1.761 1.426-3.968 2.065-6.095 2.707 1.603.713 3.376 1.289 4.543 2.687 2.888 2.987 4.531 6.849 6.454 10.47 1.143 2.333 2.483 4.57 3.476 6.978-5.06.016-10.12.024-15.179 0-.61.122-.894-.512-1.146-.918-2.223-4.078-4.366-8.196-6.664-12.23-.937-1.703-1.67-3.756-3.506-4.698-1.25-.729-2.731-.642-4.118-.67-.055 6.179.059 12.365-.06 18.544-4.712-.095-9.429.11-14.133-.114.015-15.163.004-30.33.004-45.492zm14.185 9.047c2.55-.027 5.103-.079 7.652.032 1.474.102 3.105.386 4.145 1.532 1.892 2.057 1.182 5.97-1.525 6.951-3.313 1.068-6.88 1.025-10.304.674.056-3.066.008-6.127.032-9.189zm31.09-9.05c4.68 0 9.362-.013 14.043.007.016 15.139-.028 30.282.02 45.42-4.67.371-9.367.064-14.048.166-.031-15.198 0-30.396-.016-45.594l.001.001zm-93.24 50.632h2.317l.835 4.412 1.218-4.412h2.311l1.223 4.412.835-4.412h2.306l-1.74 7.897h-2.392l-1.385-4.972-1.379 4.972h-2.392l-1.756-7.897h-.001zm11.23 3.954c0-1.29.358-2.293 1.077-3.012.718-.718 1.718-1.077 3-1.077 1.315 0 2.328.353 3.039 1.059.71.705 1.066 1.694 1.066 2.965 0 .923-.155 1.68-.466 2.271-.31.59-.76 1.05-1.346 1.38-.588.328-1.32.492-2.196.492-.89 0-1.628-.142-2.211-.426-.584-.283-1.057-.732-1.42-1.346-.362-.614-.544-1.383-.544-2.306h.001zm2.44.01c0 .798.148 1.37.444 1.72.296.348.7.522 1.21.522.524 0 .93-.17 1.217-.512.287-.341.431-.954.431-1.837 0-.743-.15-1.287-.45-1.63-.3-.343-.706-.514-1.22-.514-.492 0-.887.174-1.185.522-.298.349-.447.925-.447 1.73v-.001zm6.967 3.933v-7.897h4.067c.754 0 1.33.064 1.73.194.398.129.72.369.964.719s.366.777.366 1.28c0 .437-.093.815-.28 1.133a2.193 2.193 0 0 1-.77.773c-.209.126-.494.23-.857.313.29.097.503.194.636.29.09.065.22.204.39.416.17.211.285.375.342.49l1.18 2.29h-2.758l-1.304-2.414c-.165-.313-.312-.515-.442-.609a1.02 1.02 0 0 0-.598-.183h-.215v3.205h-2.451zm2.45-4.697h1.03c.111 0 .327-.036.646-.108.158-.03.3-.119.396-.248a.73.73 0 0 0 .154-.458c0-.255-.081-.45-.243-.587-.161-.136-.465-.205-.91-.205h-1.072v1.606h-.001zm5.977-3.2h2.44v5.953h3.809v1.944h-6.25v-7.897h.001zm7.268 0h3.626c.715 0 1.292.097 1.732.29.44.195.803.473 1.09.836.288.362.496.784.626 1.266.129.48.194.99.194 1.53 0 .844-.096 1.498-.289 1.963a3.25 3.25 0 0 1-.8 1.17 2.612 2.612 0 0 1-1.099.627 5.632 5.632 0 0 1-1.454.215h-3.626v-7.897zm2.44 1.788v4.315h.599c.51 0 .872-.056 1.088-.17.215-.112.384-.31.506-.592s.183-.739.183-1.37c0-.838-.136-1.41-.409-1.72-.273-.308-.725-.463-1.358-.463h-.609zm5.362-1.788h2.317l.835 4.412 1.217-4.412h2.311l1.223 4.412.835-4.412h2.306l-1.74 7.897h-2.392l-1.384-4.972-1.38 4.972h-2.392l-1.756-7.897zm11.821 0h2.446v7.897h-2.446v-7.897zm4.107 0h3.625c.715 0 1.292.097 1.732.29.44.195.804.473 1.091.836.287.362.496.784.625 1.266.13.48.194.99.194 1.53 0 .844-.096 1.498-.288 1.963a3.25 3.25 0 0 1-.8 1.17c-.31.296-.687.511-1.1.627a5.632 5.632 0 0 1-1.454.215h-3.625v-7.897zm2.44 1.788v4.315h.598c.51 0 .873-.056 1.088-.17.216-.112.384-.31.507-.592.122-.282.183-.739.183-1.37 0-.838-.137-1.41-.41-1.72-.273-.308-.725-.463-1.357-.463h-.61.001zm5.981-1.788h6.54v1.686h-4.094v1.255h3.798v1.61h-3.798v1.558h4.213v1.788h-6.659v-7.897zm11.44 0h3.625c.715 0 1.292.097 1.732.29.44.195.804.473 1.091.836.288.362.496.784.625 1.266.13.48.194.99.194 1.53 0 .844-.096 1.498-.288 1.963a3.25 3.25 0 0 1-.8 1.17 2.612 2.612 0 0 1-1.099.627 5.646 5.646 0 0 1-1.455.215h-3.625v-7.897zm2.44 1.788v4.315h.598c.51 0 .873-.056 1.088-.17.216-.112.385-.31.507-.592s.183-.739.183-1.37c0-.838-.136-1.41-.41-1.72-.272-.308-.725-.463-1.357-.463h-.609zm6.02 6.11v-7.898h4.066c.755 0 1.331.064 1.73.194.398.129.72.369.964.719s.366.777.366 1.28c0 .437-.093.815-.28 1.133a2.193 2.193 0 0 1-.77.773c-.208.126-.494.23-.857.313.291.097.503.194.636.29.09.065.22.204.39.416.171.211.285.375.343.49l1.18 2.29h-2.759l-1.304-2.414c-.165-.313-.312-.515-.441-.609a1.02 1.02 0 0 0-.598-.183h-.216v3.205h-2.45v.001zm2.45-4.698h1.03c.11 0 .326-.036.646-.108.158-.03.3-.119.396-.248a.735.735 0 0 0 .153-.458c0-.255-.08-.45-.242-.587-.162-.136-.465-.205-.91-.205h-1.073v1.606zm10.927-3.2h2.435v4.708c0 .467-.073.908-.218 1.323-.142.41-.376.782-.684 1.088-.311.31-.637.529-.978.654-.474.176-1.044.264-1.708.264a10.784 10.784 0 0 1-1.258-.08c-.454-.054-.834-.161-1.14-.32a2.843 2.843 0 0 1-.837-.682 2.49 2.49 0 0 1-.52-.91c-.15-.504-.226-.949-.226-1.337v-4.708h2.435v4.821c0 .431.12.768.358 1.01.239.243.57.364.994.364.42 0 .75-.12.989-.358.238-.239.358-.578.358-1.016v-4.821zm3.902 0h3.21l1.24 4.805 1.233-4.805h3.2v7.897h-1.993v-6.023l-1.546 6.023h-1.805l-1.54-6.023v6.023h-2v-7.897h.001zm16.55 4.056l1.714.383c-.09.316-.176.57-.259.76-.083.19-.2.414-.35.673l.824.565c.1.065.23.142.388.232l-1.18 1.358a8.695 8.695 0 0 1-.67-.399c-.232-.15-.44-.28-.623-.388-.38.252-.761.435-1.142.55-.528.158-1.128.237-1.8.237-1.052 0-1.834-.22-2.348-.658-.514-.438-.77-.97-.77-1.594 0-.45.15-.874.452-1.274.302-.4.796-.74 1.482-1.016-.288-.348-.485-.65-.593-.907a2.011 2.011 0 0 1-.162-.784c0-.56.214-1.022.641-1.385.428-.363 1.076-.544 1.945-.544.887 0 1.54.172 1.956.517.416.345.625.758.625 1.24 0 .269-.064.527-.192.775a1.967 1.967 0 0 1-.46.603c-.18.155-.501.385-.964.69.384.384.784.742 1.2 1.072.112-.223.207-.458.286-.706zm-2.52-1.384c.247-.127.47-.298.656-.504.155-.181.232-.353.232-.514a.555.555 0 0 0-.194-.429c-.13-.116-.307-.175-.533-.175a.77.77 0 0 0-.544.194.606.606 0 0 0-.21.458c0 .223.197.546.592.97h.001zm-.782 1.918c-.302.212-.502.393-.6.544a.866.866 0 0 0-.149.48c0 .261.113.495.34.7.226.204.52.307.883.307.392 0 .832-.153 1.32-.458-.467-.36-1.065-.884-1.794-1.573zm6.762-4.59h4.569c.761 0 1.346.188 1.753.565.408.377.612.844.612 1.401 0 .467-.146.867-.437 1.201-.194.223-.477.4-.85.528.567.137.984.371 1.252.703.267.333.401.75.401 1.253 0 .41-.095.777-.286 1.104-.19.327-.45.586-.78.776-.205.119-.514.205-.927.259-.55.071-.914.107-1.094.107h-4.213v-7.897zm2.462 3.097h1.062c.38 0 .645-.065.794-.196.15-.131.224-.32.224-.569 0-.23-.075-.409-.224-.538-.149-.13-.408-.194-.778-.194h-1.078v1.497zm0 3.103h1.245c.42 0 .716-.074.889-.223a.75.75 0 0 0 .258-.6.693.693 0 0 0-.256-.564c-.17-.142-.47-.213-.897-.213h-1.239v1.6zm10.663.394h-2.78l-.382 1.303h-2.495l2.969-7.897h2.661l2.968 7.897h-2.553l-.388-1.303zm-.512-1.708l-.873-2.84-.867 2.84h1.74zm3.686.399l2.322-.146c.05.377.153.665.307.862.252.32.61.48 1.078.48.348 0 .617-.082.805-.246.189-.163.283-.352.283-.568 0-.205-.09-.388-.27-.55-.179-.161-.596-.314-1.25-.457-1.07-.241-1.833-.56-2.289-.96a1.927 1.927 0 0 1-.69-1.524c0-.406.118-.79.353-1.15.236-.361.59-.645 1.062-.851.472-.207 1.12-.31 1.942-.31 1.01 0 1.779.188 2.308.563.53.375.845.972.946 1.791l-2.3.135c-.062-.356-.19-.614-.386-.776-.196-.161-.466-.242-.81-.242-.284 0-.498.06-.642.18a.553.553 0 0 0-.215.44c0 .125.06.238.178.339.115.104.388.2.819.29 1.066.23 1.83.463 2.292.698.461.235.797.527 1.007.876.21.348.315.738.315 1.169 0 .506-.14.973-.42 1.4a2.63 2.63 0 0 1-1.174.973c-.503.22-1.137.331-1.902.331-1.343 0-2.273-.259-2.79-.776-.518-.517-.81-1.174-.879-1.971zm7.845 0l2.322-.146c.05.377.153.665.307.862.252.32.611.48 1.078.48.348 0 .617-.082.805-.246.189-.163.283-.352.283-.568 0-.205-.09-.388-.27-.55-.179-.161-.595-.314-1.25-.457-1.07-.241-1.833-.56-2.289-.96a1.927 1.927 0 0 1-.69-1.524c0-.406.118-.79.354-1.15.235-.361.589-.645 1.06-.851.473-.207 1.12-.31 1.943-.31 1.01 0 1.779.188 2.308.563.53.375.845.972.946 1.791l-2.3.135c-.062-.356-.19-.614-.386-.776-.195-.161-.466-.242-.81-.242-.284 0-.498.06-.642.18a.553.553 0 0 0-.215.44c0 .125.06.238.178.339.115.104.388.2.819.29 1.066.23 1.83.463 2.292.698.461.235.797.527 1.007.876.21.348.315.738.315 1.169 0 .506-.14.973-.42 1.4a2.63 2.63 0 0 1-1.174.973c-.503.22-1.137.331-1.902.331-1.343 0-2.273-.259-2.79-.776-.518-.517-.81-1.174-.879-1.971zm11.86 2.612v-7.897h4.068c.754 0 1.33.064 1.729.194.399.129.72.369.964.719.245.35.367.777.367 1.28 0 .437-.094.815-.28 1.133a2.193 2.193 0 0 1-.77.773c-.21.126-.495.23-.857.313.29.097.502.194.635.29.09.065.22.204.39.416.171.211.285.375.343.49l1.18 2.29h-2.759l-1.303-2.414c-.165-.313-.313-.515-.442-.609a1.02 1.02 0 0 0-.598-.183h-.215v3.205h-2.452zm2.452-4.697h1.029c.11 0 .326-.036.646-.108.158-.03.3-.119.396-.248a.735.735 0 0 0 .153-.458c0-.255-.08-.45-.242-.587-.162-.136-.465-.205-.91-.205h-1.072v1.606zm10.835 3.394h-2.78l-.383 1.303h-2.494l2.968-7.897h2.662l2.968 7.897h-2.554l-.387-1.303zm-.512-1.708l-.873-2.84-.867 2.84h1.74zm4.144-4.886h3.625c.715 0 1.293.097 1.732.29.44.195.804.473 1.091.836.288.362.496.784.625 1.266.13.48.194.99.194 1.53 0 .844-.096 1.498-.288 1.963a3.25 3.25 0 0 1-.8 1.17 2.612 2.612 0 0 1-1.099.627 5.646 5.646 0 0 1-1.455.215h-3.625v-7.897zm2.44 1.788v4.315h.598c.51 0 .873-.056 1.089-.17.215-.112.384-.31.506-.592s.183-.739.183-1.37c0-.838-.136-1.41-.41-1.72-.272-.308-.725-.463-1.357-.463h-.609zm6.084-1.788h2.446v7.897h-2.446v-7.897zm3.767 3.954c0-1.29.359-2.293 1.077-3.012.719-.718 1.719-1.077 3-1.077 1.315 0 2.328.353 3.04 1.059.71.705 1.066 1.694 1.066 2.965 0 .923-.155 1.68-.466 2.271-.31.59-.76 1.05-1.347 1.38-.587.328-1.319.492-2.195.492-.89 0-1.628-.142-2.212-.426-.583-.283-1.056-.732-1.42-1.346-.362-.614-.543-1.383-.543-2.306zm2.44.01c0 .798.148 1.37.445 1.72.296.348.7.522 1.21.522.523 0 .93-.17 1.217-.512.287-.341.43-.954.43-1.837 0-.743-.15-1.287-.45-1.63-.3-.343-.706-.514-1.22-.514-.491 0-.887.174-1.185.522-.298.349-.447.925-.447 1.73v-.001z"/></svg>